<mxfile host="65bd71144e">
    <diagram name="Page-1" id="x3S8E4HF8d_bSAnu3RyC">
        <mxGraphModel dx="861" dy="1215" grid="1" gridSize="10" guides="1" tooltips="1" connect="1" arrows="1" fold="1" page="1" pageScale="1" pageWidth="850" pageHeight="1100" math="1" shadow="0">
            <root>
                <mxCell id="0"/>
                <mxCell id="1" parent="0"/>
                <mxCell id="iHROGMA9K2DD_lgB37E0-2" value="Improver Agent" style="rounded=0;whiteSpace=wrap;html=1;labelPosition=center;verticalLabelPosition=top;align=center;verticalAlign=bottom;fontStyle=1;fontSize=20;shadow=0;fillColor=none;strokeWidth=2;" parent="1" vertex="1">
                    <mxGeometry x="40" y="360" width="619" height="560" as="geometry"/>
                </mxCell>
                <mxCell id="iHROGMA9K2DD_lgB37E0-3" value="Slow Graph (S2)" style="rounded=0;whiteSpace=wrap;html=1;labelPosition=center;verticalLabelPosition=top;align=center;verticalAlign=bottom;labelBackgroundColor=none;fillColor=none;fontSize=14;fontStyle=1;strokeColor=#6C8EBF;strokeWidth=2;fontColor=#000000;" parent="1" vertex="1">
                    <mxGeometry x="378" y="400" width="261" height="493" as="geometry"/>
                </mxCell>
                <mxCell id="iHROGMA9K2DD_lgB37E0-4" value="Incremental Improvement" style="rounded=0;whiteSpace=wrap;html=1;labelPosition=center;verticalLabelPosition=top;align=center;verticalAlign=bottom;labelBackgroundColor=none;fillColor=none;fontSize=13;fontStyle=1;strokeColor=#d6b656;strokeWidth=1;fontColor=#000000;" parent="1" vertex="1">
                    <mxGeometry x="408" y="510" width="210" height="300" as="geometry"/>
                </mxCell>
                <mxCell id="iHROGMA9K2DD_lgB37E0-5" style="rounded=0;orthogonalLoop=1;jettySize=auto;html=1;entryX=0;entryY=0.5;entryDx=0;entryDy=0;dashed=1;exitX=1.003;exitY=0.467;exitDx=0;exitDy=0;exitPerimeter=0;endArrow=open;endFill=0;" parent="1" source="iHROGMA9K2DD_lgB37E0-30" target="iHROGMA9K2DD_lgB37E0-8" edge="1">
                    <mxGeometry relative="1" as="geometry">
                        <mxPoint x="209" y="690" as="sourcePoint"/>
                    </mxGeometry>
                </mxCell>
                <mxCell id="iHROGMA9K2DD_lgB37E0-6" style="rounded=0;orthogonalLoop=1;jettySize=auto;html=1;endArrow=open;endFill=0;exitX=1;exitY=0.5;exitDx=0;exitDy=0;fontSize=11;dashed=1;" parent="1" source="iHROGMA9K2DD_lgB37E0-8" edge="1">
                    <mxGeometry relative="1" as="geometry">
                        <mxPoint x="378" y="647" as="targetPoint"/>
                        <mxPoint x="348" y="678" as="sourcePoint"/>
                    </mxGeometry>
                </mxCell>
                <mxCell id="iHROGMA9K2DD_lgB37E0-7" value="No" style="edgeLabel;html=1;align=center;verticalAlign=middle;resizable=0;points=[];" parent="iHROGMA9K2DD_lgB37E0-6" connectable="0" vertex="1">
                    <mxGeometry x="-0.2252" y="-2" relative="1" as="geometry">
                        <mxPoint y="-2" as="offset"/>
                    </mxGeometry>
                </mxCell>
                <mxCell id="iHROGMA9K2DD_lgB37E0-8" value="&lt;span style=&quot;font-size: 12px;&quot;&gt;$$\delta(score)&amp;gt;\mu$$&lt;/span&gt;" style="rhombus;whiteSpace=wrap;html=1;fontSize=12;fontStyle=1;fillColor=#d5e8d4;strokeColor=#82b366;" parent="1" vertex="1">
                    <mxGeometry x="230.43" y="614" width="98.57" height="64" as="geometry"/>
                </mxCell>
                <mxCell id="iHROGMA9K2DD_lgB37E0-9" style="rounded=0;orthogonalLoop=1;jettySize=auto;html=1;endArrow=open;endFill=0;exitX=0.5;exitY=1;exitDx=0;exitDy=0;fontSize=11;entryX=0.437;entryY=0.007;entryDx=0;entryDy=0;entryPerimeter=0;" parent="1" source="iHROGMA9K2DD_lgB37E0-8" target="iHROGMA9K2DD_lgB37E0-11" edge="1">
                    <mxGeometry relative="1" as="geometry">
                        <mxPoint x="280" y="780" as="targetPoint"/>
                    </mxGeometry>
                </mxCell>
                <mxCell id="iHROGMA9K2DD_lgB37E0-10" value="Yes" style="edgeLabel;html=1;align=center;verticalAlign=middle;resizable=0;points=[];" parent="iHROGMA9K2DD_lgB37E0-9" connectable="0" vertex="1">
                    <mxGeometry x="-0.2612" y="-1" relative="1" as="geometry">
                        <mxPoint y="-2" as="offset"/>
                    </mxGeometry>
                </mxCell>
                <mxCell id="iHROGMA9K2DD_lgB37E0-11" value="End" style="text;html=1;align=center;verticalAlign=middle;resizable=0;points=[];autosize=1;strokeColor=#666666;fillColor=#f5f5f5;labelBorderColor=none;fontStyle=1;fontSize=11;spacing=1;opacity=70;rounded=1;fontColor=#333333;strokeWidth=2;labelPosition=center;verticalLabelPosition=middle;dashed=1;" parent="1" vertex="1">
                    <mxGeometry x="261.7100000000003" y="725.0800000000002" width="40" height="20" as="geometry"/>
                </mxCell>
                <mxCell id="iHROGMA9K2DD_lgB37E0-12" style="rounded=0;orthogonalLoop=1;jettySize=auto;html=1;endArrow=open;endFill=0;" parent="1" source="iHROGMA9K2DD_lgB37E0-14" target="iHROGMA9K2DD_lgB37E0-21" edge="1">
                    <mxGeometry relative="1" as="geometry"/>
                </mxCell>
                <mxCell id="iHROGMA9K2DD_lgB37E0-13" value="No errors" style="edgeLabel;html=1;align=center;verticalAlign=middle;resizable=0;points=[];" parent="iHROGMA9K2DD_lgB37E0-12" connectable="0" vertex="1">
                    <mxGeometry x="-0.207" y="1" relative="1" as="geometry">
                        <mxPoint as="offset"/>
                    </mxGeometry>
                </mxCell>
                <mxCell id="iHROGMA9K2DD_lgB37E0-14" value="&lt;div style=&quot;font-size: 12px;&quot;&gt;&lt;div&gt;Apply&amp;nbsp;&lt;/div&gt;&lt;div&gt;Change&lt;/div&gt;&lt;/div&gt;" style="ellipse;whiteSpace=wrap;html=1;rounded=0;shadow=0;strokeWidth=2;fontSize=12;align=center;labelPosition=center;verticalLabelPosition=middle;verticalAlign=middle;fontStyle=1;fillColor=#fff2cc;strokeColor=#d6b656;" parent="1" vertex="1">
                    <mxGeometry x="543.4837056023435" y="639.578947368421" width="60.37715122665691" height="58.421052631578945" as="geometry"/>
                </mxCell>
                <mxCell id="iHROGMA9K2DD_lgB37E0-15" style="rounded=0;orthogonalLoop=1;jettySize=auto;html=1;entryX=0.5;entryY=0;entryDx=0;entryDy=0;endArrow=open;endFill=0;exitX=0.928;exitY=0.786;exitDx=0;exitDy=0;exitPerimeter=0;" parent="1" source="iHROGMA9K2DD_lgB37E0-43" target="iHROGMA9K2DD_lgB37E0-14" edge="1">
                    <mxGeometry relative="1" as="geometry">
                        <mxPoint x="543.4434273160015" y="571.421052631579" as="sourcePoint"/>
                    </mxGeometry>
                </mxCell>
                <mxCell id="iHROGMA9K2DD_lgB37E0-16" value="New code" style="edgeLabel;html=1;align=center;verticalAlign=middle;resizable=0;points=[];" parent="iHROGMA9K2DD_lgB37E0-15" connectable="0" vertex="1">
                    <mxGeometry x="-0.211" y="1" relative="1" as="geometry">
                        <mxPoint as="offset"/>
                    </mxGeometry>
                </mxCell>
                <mxCell id="iHROGMA9K2DD_lgB37E0-17" style="rounded=0;orthogonalLoop=1;jettySize=auto;html=1;entryX=0.379;entryY=0.958;entryDx=0;entryDy=0;entryPerimeter=0;exitX=0.024;exitY=0.289;exitDx=0;exitDy=0;exitPerimeter=0;endArrow=open;endFill=0;" parent="1" source="iHROGMA9K2DD_lgB37E0-14" target="iHROGMA9K2DD_lgB37E0-43" edge="1">
                    <mxGeometry relative="1" as="geometry"/>
                </mxCell>
                <mxCell id="iHROGMA9K2DD_lgB37E0-18" value="Runtime&lt;div&gt;error&lt;/div&gt;" style="edgeLabel;html=1;align=center;verticalAlign=middle;resizable=0;points=[];" parent="iHROGMA9K2DD_lgB37E0-17" connectable="0" vertex="1">
                    <mxGeometry x="-0.026" relative="1" as="geometry">
                        <mxPoint as="offset"/>
                    </mxGeometry>
                </mxCell>
                <mxCell id="iHROGMA9K2DD_lgB37E0-19" style="rounded=0;orthogonalLoop=1;jettySize=auto;html=1;entryX=0.446;entryY=0.033;entryDx=0;entryDy=0;entryPerimeter=0;endArrow=open;endFill=0;" parent="1" source="iHROGMA9K2DD_lgB37E0-21" target="iHROGMA9K2DD_lgB37E0-25" edge="1">
                    <mxGeometry relative="1" as="geometry">
                        <mxPoint x="664.2782863419993" y="834.3157894736842" as="targetPoint"/>
                    </mxGeometry>
                </mxCell>
                <mxCell id="iHROGMA9K2DD_lgB37E0-20" value="Target&lt;div&gt;met&lt;/div&gt;" style="edgeLabel;html=1;align=center;verticalAlign=middle;resizable=0;points=[];" parent="iHROGMA9K2DD_lgB37E0-19" connectable="0" vertex="1">
                    <mxGeometry x="-0.1388" relative="1" as="geometry">
                        <mxPoint y="4" as="offset"/>
                    </mxGeometry>
                </mxCell>
                <mxCell id="iHROGMA9K2DD_lgB37E0-21" value="&lt;div style=&quot;font-size: 12px;&quot;&gt;&lt;div&gt;Evaluate&lt;/div&gt;&lt;div&gt;Change&lt;/div&gt;&lt;/div&gt;" style="ellipse;whiteSpace=wrap;html=1;rounded=0;shadow=0;strokeWidth=2;fontSize=12;align=center;labelPosition=center;verticalLabelPosition=middle;verticalAlign=middle;fontStyle=1;fillColor=#fff2cc;strokeColor=#d6b656;" parent="1" vertex="1">
                    <mxGeometry x="487.1746612962285" y="742.3026315789473" width="68.86580007323326" height="59.63815789473683" as="geometry"/>
                </mxCell>
                <mxCell id="iHROGMA9K2DD_lgB37E0-22" style="edgeStyle=orthogonalEdgeStyle;rounded=0;orthogonalLoop=1;jettySize=auto;html=1;endArrow=open;endFill=0;dashed=1;" parent="1" source="iHROGMA9K2DD_lgB37E0-24" target="iHROGMA9K2DD_lgB37E0-32" edge="1">
                    <mxGeometry relative="1" as="geometry">
                        <Array as="points">
                            <mxPoint x="458" y="800"/>
                            <mxPoint x="151" y="800"/>
                        </Array>
                    </mxGeometry>
                </mxCell>
                <mxCell id="iHROGMA9K2DD_lgB37E0-23" value="Feedback" style="edgeLabel;html=1;align=center;verticalAlign=middle;resizable=0;points=[];fontSize=12;" parent="iHROGMA9K2DD_lgB37E0-22" connectable="0" vertex="1">
                    <mxGeometry x="0.1074" y="-2" relative="1" as="geometry">
                        <mxPoint as="offset"/>
                    </mxGeometry>
                </mxCell>
                <mxCell id="iHROGMA9K2DD_lgB37E0-24" value="Improvement&lt;div&gt;History&lt;/div&gt;" style="shape=cylinder3;whiteSpace=wrap;html=1;boundedLbl=1;backgroundOutline=1;size=6.266558672930728;fillColor=#f8cecc;strokeColor=#b85450;fontStyle=1" parent="1" vertex="1">
                    <mxGeometry x="416.33" y="645.79" width="82.67" height="46.01" as="geometry"/>
                </mxCell>
                <mxCell id="iHROGMA9K2DD_lgB37E0-25" value="End" style="text;html=1;align=center;verticalAlign=middle;resizable=0;points=[];autosize=1;strokeColor=#666666;fillColor=#f5f5f5;labelBorderColor=none;fontStyle=1;fontSize=11;spacing=1;opacity=70;rounded=1;fontColor=#333333;strokeWidth=2;labelPosition=center;verticalLabelPosition=middle;dashed=1;" parent="1" vertex="1">
                    <mxGeometry x="503.20541926034446" y="860.6200000000001" width="40" height="20" as="geometry"/>
                </mxCell>
                <mxCell id="iHROGMA9K2DD_lgB37E0-26" style="rounded=0;orthogonalLoop=1;jettySize=auto;html=1;entryX=0.637;entryY=1.003;entryDx=0;entryDy=0;entryPerimeter=0;endArrow=open;endFill=0;" parent="1" source="iHROGMA9K2DD_lgB37E0-21" target="iHROGMA9K2DD_lgB37E0-24" edge="1">
                    <mxGeometry relative="1" as="geometry"/>
                </mxCell>
                <mxCell id="iHROGMA9K2DD_lgB37E0-27" value="Failure/&lt;div&gt;Success&lt;/div&gt;" style="edgeLabel;html=1;align=center;verticalAlign=middle;resizable=0;points=[];" parent="iHROGMA9K2DD_lgB37E0-26" connectable="0" vertex="1">
                    <mxGeometry x="-0.0051" relative="1" as="geometry">
                        <mxPoint as="offset"/>
                    </mxGeometry>
                </mxCell>
                <mxCell id="iHROGMA9K2DD_lgB37E0-28" style="rounded=0;orthogonalLoop=1;jettySize=auto;html=1;entryX=0.083;entryY=0.751;entryDx=0;entryDy=0;entryPerimeter=0;endArrow=open;endFill=0;" parent="1" source="iHROGMA9K2DD_lgB37E0-24" target="iHROGMA9K2DD_lgB37E0-43" edge="1">
                    <mxGeometry relative="1" as="geometry"/>
                </mxCell>
                <mxCell id="iHROGMA9K2DD_lgB37E0-29" value="Guide&lt;div&gt;reasoning&lt;/div&gt;" style="edgeLabel;html=1;align=center;verticalAlign=middle;resizable=0;points=[];" parent="iHROGMA9K2DD_lgB37E0-28" connectable="0" vertex="1">
                    <mxGeometry x="-0.1332" y="2" relative="1" as="geometry">
                        <mxPoint as="offset"/>
                    </mxGeometry>
                </mxCell>
                <mxCell id="iHROGMA9K2DD_lgB37E0-30" value="Fast Graph (S1)" style="rounded=0;whiteSpace=wrap;html=1;labelPosition=center;verticalLabelPosition=top;align=center;verticalAlign=bottom;labelBackgroundColor=none;fillColor=none;fontSize=14;fontStyle=1;strokeColor=#b85450;container=0;strokeWidth=2;fontColor=#000000;" parent="1" vertex="1">
                    <mxGeometry x="67.47000000000003" y="530" width="141" height="249.08" as="geometry"/>
                </mxCell>
                <mxCell id="iHROGMA9K2DD_lgB37E0-31" value="&lt;div style=&quot;font-size: 12px;&quot;&gt;Measure&lt;/div&gt;&lt;div style=&quot;font-size: 12px;&quot;&gt;Criticality&lt;/div&gt;" style="ellipse;whiteSpace=wrap;html=1;rounded=0;shadow=0;strokeWidth=2;fontSize=12;align=center;labelPosition=center;verticalLabelPosition=middle;verticalAlign=middle;fontStyle=1;container=0;fillColor=#f8cecc;strokeColor=#b85450;" parent="1" vertex="1">
                    <mxGeometry x="121.88000000000005" y="539.58" width="62.97" height="49.92" as="geometry"/>
                </mxCell>
                <mxCell id="iHROGMA9K2DD_lgB37E0-32" value="&lt;div style=&quot;font-size: 12px;&quot;&gt;Fast&lt;/div&gt;&lt;div style=&quot;font-size: 12px;&quot;&gt;Update&lt;/div&gt;" style="ellipse;whiteSpace=wrap;html=1;rounded=0;shadow=0;strokeWidth=2;fontSize=12;align=center;labelPosition=center;verticalLabelPosition=middle;verticalAlign=middle;fontStyle=1;container=0;fillColor=#f8cecc;strokeColor=#b85450;" parent="1" vertex="1">
                    <mxGeometry x="123.88000000000005" y="699.5" width="55.14" height="46.64" as="geometry"/>
                </mxCell>
                <mxCell id="iHROGMA9K2DD_lgB37E0-33" style="rounded=0;orthogonalLoop=1;jettySize=auto;html=1;entryX=0.5;entryY=0;entryDx=0;entryDy=0;endArrow=open;endFill=0;" parent="1" source="iHROGMA9K2DD_lgB37E0-31" target="iHROGMA9K2DD_lgB37E0-34" edge="1">
                    <mxGeometry relative="1" as="geometry"/>
                </mxCell>
                <mxCell id="iHROGMA9K2DD_lgB37E0-34" value="Critical?" style="rhombus;whiteSpace=wrap;html=1;fillColor=#f5f5f5;fontColor=#333333;strokeColor=#666666;fontSize=13;labelPosition=center;verticalLabelPosition=middle;align=center;verticalAlign=middle;fontStyle=1;container=0;" parent="1" vertex="1">
                    <mxGeometry x="111.36893437500004" y="621.7285" width="82.71695375000002" height="31.135000000000005" as="geometry"/>
                </mxCell>
                <mxCell id="iHROGMA9K2DD_lgB37E0-35" value="End" style="text;html=1;align=center;verticalAlign=middle;resizable=0;points=[];autosize=1;strokeColor=#666666;fillColor=#f5f5f5;labelBorderColor=none;fontStyle=1;fontSize=11;spacing=1;opacity=70;rounded=1;fontColor=#333333;strokeWidth=2;labelPosition=center;verticalLabelPosition=middle;dashed=1;container=0;" parent="1" vertex="1">
                    <mxGeometry x="79.07984187500034" y="680" width="40" height="20" as="geometry"/>
                </mxCell>
                <mxCell id="iHROGMA9K2DD_lgB37E0-36" style="rounded=0;orthogonalLoop=1;jettySize=auto;html=1;entryX=0.676;entryY=-0.03;entryDx=0;entryDy=0;entryPerimeter=0;endArrow=open;endFill=0;" parent="1" source="iHROGMA9K2DD_lgB37E0-34" target="iHROGMA9K2DD_lgB37E0-35" edge="1">
                    <mxGeometry relative="1" as="geometry">
                        <mxPoint x="105.47000000000003" y="684" as="targetPoint"/>
                    </mxGeometry>
                </mxCell>
                <mxCell id="iHROGMA9K2DD_lgB37E0-37" value="No" style="edgeLabel;html=1;align=center;verticalAlign=middle;resizable=0;points=[];container=0;" parent="iHROGMA9K2DD_lgB37E0-36" connectable="0" vertex="1">
                    <mxGeometry x="-0.3115" relative="1" as="geometry">
                        <mxPoint as="offset"/>
                    </mxGeometry>
                </mxCell>
                <mxCell id="iHROGMA9K2DD_lgB37E0-38" style="rounded=0;orthogonalLoop=1;jettySize=auto;html=1;entryX=0.5;entryY=0;entryDx=0;entryDy=0;endArrow=open;endFill=0;" parent="1" source="iHROGMA9K2DD_lgB37E0-34" target="iHROGMA9K2DD_lgB37E0-32" edge="1">
                    <mxGeometry relative="1" as="geometry">
                        <mxPoint x="131.6653093750001" y="623.8890295000001" as="targetPoint"/>
                    </mxGeometry>
                </mxCell>
                <mxCell id="iHROGMA9K2DD_lgB37E0-39" value="Yes" style="edgeLabel;html=1;align=center;verticalAlign=middle;resizable=0;points=[];fontSize=12;container=0;" parent="iHROGMA9K2DD_lgB37E0-38" connectable="0" vertex="1">
                    <mxGeometry x="0.0169" y="-2" relative="1" as="geometry">
                        <mxPoint as="offset"/>
                    </mxGeometry>
                </mxCell>
                <mxCell id="iHROGMA9K2DD_lgB37E0-40" value="&lt;b style=&quot;font-size: 13px;&quot;&gt;Proxy&lt;/b&gt;" style="text;html=1;align=center;verticalAlign=middle;resizable=0;points=[];autosize=1;strokeColor=none;fillColor=none;fontSize=13;" parent="1" vertex="1">
                    <mxGeometry x="251.71" y="589.5" width="60" height="30" as="geometry"/>
                </mxCell>
                <mxCell id="iHROGMA9K2DD_lgB37E0-41" value="&lt;div style=&quot;font-size: 12px;&quot;&gt;Distill&lt;/div&gt;&lt;div style=&quot;font-size: 12px;&quot;&gt;memories&lt;/div&gt;" style="ellipse;whiteSpace=wrap;html=1;rounded=0;shadow=0;strokeWidth=2;fontSize=12;align=center;opacity=50;labelPosition=center;verticalLabelPosition=middle;verticalAlign=middle;fontStyle=1;fillColor=#dae8fc;strokeColor=#6c8ebf;" parent="1" vertex="1">
                    <mxGeometry x="485.33714756499455" y="409.9968421052631" width="67.42585133650678" height="58.421052631578945" as="geometry"/>
                </mxCell>
                <mxCell id="iHROGMA9K2DD_lgB37E0-42" style="rounded=0;orthogonalLoop=1;jettySize=auto;html=1;entryX=0.5;entryY=0;entryDx=0;entryDy=0;dashed=1;endArrow=open;endFill=0;" parent="1" source="iHROGMA9K2DD_lgB37E0-41" target="iHROGMA9K2DD_lgB37E0-43" edge="1">
                    <mxGeometry relative="1" as="geometry"/>
                </mxCell>
                <mxCell id="iHROGMA9K2DD_lgB37E0-43" value="&lt;div style=&quot;font-size: 12px;&quot;&gt;Tiny&lt;/div&gt;&lt;div style=&quot;font-size: 12px;&quot;&gt;Change&lt;/div&gt;" style="ellipse;whiteSpace=wrap;html=1;rounded=0;shadow=0;strokeWidth=2;fontSize=12;align=center;labelPosition=center;verticalLabelPosition=middle;verticalAlign=middle;fontStyle=1;fillColor=#fff2cc;strokeColor=#d6b656;" parent="1" vertex="1">
                    <mxGeometry x="486.08714756499455" y="522.7368421052631" width="67.42585133650678" height="58.421052631578945" as="geometry"/>
                </mxCell>
            </root>
        </mxGraphModel>
    </diagram>
</mxfile>